<svg width="215" height="244" viewBox="0 0 215 244" fill="none" xmlns="http://www.w3.org/2000/svg">
<path d="M119.455 243.256C151.976 243.256 178.339 227.781 178.339 208.692C178.339 189.603 151.976 174.128 119.455 174.128C86.9337 174.128 60.5703 189.603 60.5703 208.692C60.5703 227.781 86.9337 243.256 119.455 243.256Z" fill="black"/>
<path d="M155.048 191.576C155.048 193.604 154.644 195.573 153.896 197.466C143.162 190.817 127.975 186.674 111.134 186.674C94.2933 186.674 79.1121 190.817 68.3718 197.466C67.6122 195.573 67.209 193.604 67.209 191.576C67.209 187.357 68.927 183.378 71.9948 179.86C79.2698 171.516 94.0596 165.801 111.128 165.801C128.197 165.801 142.969 171.51 150.238 179.843C150.25 179.843 150.25 179.854 150.25 179.854C153.318 183.372 155.048 187.351 155.048 191.582V191.576Z" stroke="black" stroke-width="0.584344" stroke-miterlimit="10"/>
<path d="M155.047 191.576C155.047 191.874 155.035 192.172 155.018 192.47C154.924 194.182 154.539 195.853 153.896 197.466C153.75 197.379 153.615 197.291 153.475 197.215C142.77 190.705 127.758 186.673 111.139 186.673C94.5208 186.673 79.509 190.711 68.8038 197.215C68.6577 197.291 68.5233 197.379 68.3831 197.466C67.7403 195.871 67.3546 194.217 67.2611 192.529C67.2319 192.213 67.2202 191.892 67.2202 191.576C67.2202 191.372 67.2202 191.173 67.2377 190.968C67.2377 191.313 67.267 191.67 67.2962 192.014C68.5058 181.099 85.405 172.293 106.798 171.223C107.487 171.194 108.183 171.165 108.884 171.147C109.632 171.13 110.386 171.118 111.145 171.118C111.905 171.118 112.653 171.13 113.407 171.147C135.781 171.726 153.744 180.736 154.995 192.014C155.012 191.763 155.035 191.506 155.053 191.255C155.065 191.36 155.065 191.465 155.065 191.57L155.047 191.576Z" fill="#FFAD8B" stroke="black" stroke-width="0.584344" stroke-miterlimit="10"/>
<path d="M153.47 197.215C148.55 207.319 132.597 214.833 113.39 215.388C112.642 215.406 111.888 215.418 111.128 215.418C110.369 215.418 109.621 215.406 108.867 215.388C89.6652 214.833 73.7068 207.313 68.7866 197.215C79.4918 190.706 94.5036 186.674 111.122 186.674C127.741 186.674 142.753 190.712 153.458 197.215H153.47Z" fill="#FFF6F2" stroke="black" stroke-width="0.584344" stroke-miterlimit="10"/>
<path d="M164.813 186.738V186.72L164.042 184.377V184.365C164.042 184.365 164.024 184.319 164.001 184.289C158.397 170.189 136.852 159.706 111.129 159.706C85.4064 159.706 63.8617 170.189 58.2578 184.289C58.2403 184.319 58.2286 184.336 58.2169 184.365V184.377L57.4456 186.72V186.738C57.0307 188.316 56.8203 189.928 56.8203 191.57C56.8203 191.804 56.8203 192.02 56.8378 192.254C56.943 195.31 57.7786 198.261 59.257 201.048C59.6778 201.837 60.1511 202.614 60.6711 203.386C60.7296 203.462 60.7646 203.508 60.7646 203.508C66.5496 211.917 78.2774 218.538 92.9036 221.6L92.9912 221.512L96.8362 218.117C100.74 218.847 105.531 219.432 111.012 219.444C116.575 219.455 121.443 218.859 125.393 218.117C126.673 219.239 127.958 220.378 129.238 221.512L129.326 221.6C143.946 218.544 155.68 211.923 161.476 203.508C161.506 203.468 161.535 203.433 161.57 203.386C162.09 202.614 162.557 201.837 162.972 201.048C164.451 198.261 165.298 195.31 165.403 192.254C165.421 192.026 165.421 191.804 165.421 191.57C165.421 189.928 165.21 188.31 164.795 186.738H164.813ZM111.135 215.417C110.375 215.417 109.627 215.406 108.874 215.388C89.6721 214.833 73.7137 207.313 68.7935 197.215C67.9754 195.544 67.4671 193.803 67.2859 192.014C68.4955 181.099 85.3947 172.293 106.788 171.223C107.477 171.194 108.172 171.165 108.874 171.148C109.622 171.13 110.375 171.118 111.135 171.118C111.895 171.118 112.643 171.13 113.396 171.148C135.771 171.726 153.734 180.737 154.984 192.014C154.803 193.803 154.295 195.544 153.477 197.215C148.556 207.318 132.604 214.833 113.396 215.388C112.649 215.406 111.895 215.417 111.135 215.417Z" fill="#F9F9F9" stroke="black" stroke-width="0.584344" stroke-miterlimit="10"/>
<path d="M129.337 221.6C123.645 222.792 117.515 223.435 111.134 223.435C104.753 223.435 98.6119 222.792 92.9204 221.6L93.0081 221.512L96.853 218.117C100.756 218.848 105.548 219.432 111.029 219.444C116.592 219.455 121.46 218.859 125.41 218.117C126.69 219.239 127.975 220.379 129.255 221.512L129.343 221.6H129.337Z" fill="#FFAD8B" stroke="black" stroke-width="0.584344" stroke-miterlimit="10"/>
<path d="M60.7687 203.514C60.7687 203.514 60.7278 203.467 60.6752 203.391C60.1551 202.62 59.6877 201.843 59.2611 201.054C57.7827 198.266 56.9471 195.315 56.8419 192.259C56.8244 192.026 56.8244 191.809 56.8244 191.576C56.8244 189.934 57.0347 188.315 57.4496 186.743L54.0195 197.22L52.769 201.036L52.7573 201.054C52.5645 201.86 52.4301 202.69 52.3425 203.514C52.2665 204.233 52.2256 204.957 52.2256 205.688C52.2256 208.358 52.7457 210.964 53.7273 213.465C58.3028 225.158 73.0049 234.578 92.1129 238.405L92.9135 221.605C78.3633 218.537 66.542 211.905 60.7687 203.52V203.514Z" fill="#FCD0BA" stroke="black" stroke-width="0.584344" stroke-miterlimit="10"/>
<path d="M169.906 203.514C169.819 202.69 169.684 201.86 169.492 201.054L169.48 201.036L168.229 197.22L164.799 186.743C165.214 188.321 165.425 189.934 165.425 191.576C165.425 191.804 165.425 192.026 165.407 192.259C165.302 195.315 164.455 198.266 162.976 201.054C162.561 201.843 162.094 202.62 161.574 203.391C161.615 203.432 161.48 203.514 161.48 203.514C155.707 211.899 143.891 218.531 129.341 221.599L130.136 238.399C149.244 234.572 163.946 225.152 168.522 213.459C169.503 210.958 170.023 208.358 170.023 205.682C170.023 204.951 169.982 204.233 169.906 203.508V203.514Z" fill="#FCD0BA"/>
<mask id="mask0_1278_9843" style="mask-type:luminance" maskUnits="userSpaceOnUse" x="129" y="186" width="42" height="53">
<path d="M169.905 203.514C169.818 202.69 169.683 201.86 169.491 201.054L169.479 201.036L168.228 197.22L164.798 186.743C165.213 188.321 165.424 189.934 165.424 191.576C165.424 191.804 165.424 192.026 165.406 192.259C165.301 195.315 164.454 198.266 162.975 201.054C162.56 201.843 162.093 202.62 161.573 203.391C161.614 203.432 161.479 203.514 161.479 203.514C155.706 211.899 143.89 218.531 129.34 221.599L130.135 238.399C149.243 234.572 163.945 225.152 168.521 213.459C169.502 210.958 170.022 208.358 170.022 205.682C170.022 204.951 169.981 204.233 169.905 203.508V203.514Z" fill="white"/>
</mask>
<g mask="url(#mask0_1278_9843)">
<path d="M141.197 215.417L143.844 238.399L166.616 223.434L160.924 199.64L141.197 215.417Z" fill="#FFAD8B"/>
<path d="M163.368 196.315L170.818 218.888L171.858 210.725L163.566 188.66L163.368 196.315Z" fill="#FFAD8B"/>
</g>
<path d="M169.906 203.514C169.819 202.69 169.684 201.86 169.492 201.054L169.48 201.036L168.229 197.22L164.799 186.743C165.214 188.321 165.425 189.934 165.425 191.576C165.425 191.804 165.425 192.026 165.407 192.259C165.302 195.315 164.455 198.266 162.976 201.054C162.561 201.843 162.094 202.62 161.574 203.391C161.615 203.432 161.48 203.514 161.48 203.514C155.707 211.899 143.891 218.531 129.341 221.599L130.136 238.399C149.244 234.572 163.946 225.152 168.522 213.459C169.503 210.958 170.023 208.358 170.023 205.682C170.023 204.951 169.982 204.233 169.906 203.508V203.514Z" stroke="black" stroke-width="0.584344" stroke-miterlimit="10"/>
<path d="M111.121 223.44C104.676 223.44 98.6458 222.809 92.9133 221.6L92.1128 238.399C98.0789 239.592 104.472 240.246 111.121 240.246C117.771 240.246 124.164 239.592 130.13 238.399L129.335 221.6C123.603 222.809 117.567 223.44 111.121 223.44Z" fill="#FFAD8B" stroke="black" stroke-width="0.584344" stroke-miterlimit="10"/>
<path d="M155.048 190.612C155.048 190.817 155.048 191.004 155.036 191.208V191.255C155.018 191.506 154.995 191.763 154.977 192.014C153.727 180.742 135.764 171.726 113.39 171.148C112.642 171.13 111.888 171.118 111.128 171.118C110.369 171.118 109.621 171.13 108.867 171.148C108.166 171.165 107.476 171.194 106.781 171.223C85.3879 172.293 68.4887 181.093 67.2791 192.014C67.2499 191.67 67.2207 191.313 67.2207 190.968C67.209 190.852 67.209 190.729 67.209 190.612C67.209 176.909 86.8722 165.795 111.122 165.795C135.373 165.795 155.036 176.903 155.036 190.612H155.048Z" fill="#FCD0BA" stroke="black" stroke-width="0.584344" stroke-miterlimit="10"/>
<path d="M154.977 192.014C154.796 193.802 154.288 195.544 153.47 197.215C148.549 207.318 132.597 214.833 113.389 215.388C112.641 215.406 111.888 215.417 111.128 215.417C110.368 215.417 109.62 215.406 108.867 215.388C89.665 214.833 73.7066 207.312 68.7864 197.215C67.9683 195.544 67.46 193.802 67.2788 192.014C68.4884 181.099 85.3876 172.293 106.78 171.223C107.47 171.194 108.165 171.165 108.867 171.147C109.615 171.13 110.368 171.118 111.128 171.118C111.888 171.118 112.636 171.13 113.389 171.147C135.764 171.726 153.727 180.736 154.977 192.014Z" stroke="black" stroke-width="0.584344" stroke-miterlimit="10"/>
<path opacity="0.5" d="M173.589 112.01L153.855 196.473C153.762 196.724 153.668 196.9 153.569 197.151C153.551 197.198 153.546 197.192 153.516 197.239C152.377 199.325 152.494 199.366 150.823 201.195C143.121 209.627 128.956 215.195 112.718 215.417H109.562C93.3173 215.195 79.2872 210.1 72.1816 202.141C70.487 200.26 69.6339 199.348 68.7983 197.215C68.7048 196.976 68.3834 196.45 68.2957 196.21L29.731 112.01H173.589Z" fill="url(#paint0_linear_1278_9843)"/>
<mask id="mask1_1278_9843" style="mask-type:alpha" maskUnits="userSpaceOnUse" x="0" y="0" width="173" height="179">
<rect x="1.49784" y="43.904" width="130.972" height="141.47" transform="rotate(-19.1229 1.49784 43.904)" fill="#D9D9D9" stroke="black" stroke-width="1.56842"/>
</mask>
<g mask="url(#mask1_1278_9843)">
<path d="M108.942 133.906C108.848 133.969 108.752 134.038 108.654 134.099L70.7601 157.856C67.9025 159.641 64.1401 158.731 62.4132 155.84L12.9922 72.8581C11.3204 70.0497 12.206 66.4193 14.9813 64.6899L16.5515 63.7134C14.1035 65.5301 13.3906 68.9374 14.9742 71.6059L64.3978 154.582C66.1221 157.479 69.8844 158.389 72.7393 156.596L108.942 133.906Z" fill="black"/>
<mask id="mask2_1278_9843" style="mask-type:luminance" maskUnits="userSpaceOnUse" x="12" y="63" width="97" height="96">
<path d="M108.935 133.909C108.842 133.972 108.746 134.041 108.647 134.102L70.7538 157.859C67.8961 159.644 64.1338 158.734 62.4068 155.843L12.9859 72.861C11.3141 70.0526 12.1996 66.4223 14.9749 64.6928L16.5451 63.7163C14.0971 65.5331 13.3843 68.9404 14.9678 71.6088L64.3915 154.585C66.1157 157.481 69.8781 158.391 72.733 156.599L108.935 133.909Z" fill="white"/>
</mask>
<g mask="url(#mask2_1278_9843)">
<path d="M42.4047 116.066L37.1073 119.706L45.2142 132.778L53.0768 128.149L42.4047 116.066Z" fill="white"/>
<path d="M35.3104 103.906L30.0158 107.54L33.0544 114.461L40.917 109.831L35.3104 103.906Z" fill="white"/>
<path d="M29.0101 93.399L23.7155 97.0333L23.741 98.6936L31.6037 94.0641L29.0101 93.399Z" fill="white"/>
<path d="M27.7762 90.2603L22.4816 93.8947L22.5071 95.5549L30.3698 90.9255L27.7762 90.2603Z" fill="white"/>
<path d="M57.3895 137.246L52.0949 140.88L64.2928 164.527L72.1555 159.897L57.3895 137.246Z" fill="white"/>
<path d="M64.7487 151.458L58.9298 155.456L61.5986 157.847L66.4853 153.722L64.7487 151.458Z" fill="black"/>
<path d="M69.0558 152.383L63.5485 160.641L73.4559 158.387L71.7928 154.526L69.0558 152.383Z" fill="black"/>
</g>
<path d="M108.942 133.906C108.848 133.969 108.752 134.038 108.654 134.099L70.7601 157.856C67.9025 159.641 64.1401 158.731 62.4132 155.84L12.9922 72.8581C11.3204 70.0497 12.206 66.4193 14.9813 64.6899L16.5515 63.7134C14.1035 65.5301 13.3906 68.9374 14.9742 71.6059L64.3978 154.582C66.1221 157.479 69.8844 158.389 72.7393 156.596L108.942 133.906Z" stroke="black" stroke-width="0.561895" stroke-miterlimit="10"/>
<path d="M110.631 132.844L108.997 133.865C108.997 133.865 108.956 133.892 108.934 133.909L72.7317 156.599C69.8768 158.392 66.1145 157.482 64.3902 154.585L14.9666 71.6089C13.383 68.9405 14.0959 65.5332 16.5439 63.7164C16.6729 63.6227 16.8156 63.5289 16.9556 63.4406L55.0774 39.7628C57.9323 37.9836 61.6837 38.9019 63.4024 41.7954L112.601 124.701C114.264 127.498 113.392 131.115 110.631 132.844Z" fill="#60E492"/>
<mask id="mask3_1278_9843" style="mask-type:luminance" maskUnits="userSpaceOnUse" x="14" y="38" width="100" height="120">
<path d="M110.631 132.843L108.998 133.864C108.998 133.864 108.957 133.892 108.935 133.908L72.7322 156.598C69.8773 158.391 66.115 157.481 64.3907 154.584L14.9671 71.6079C13.3835 68.9395 14.0964 65.5322 16.5444 63.7154C16.6734 63.6217 16.8161 63.5279 16.9561 63.4397L55.0779 39.7618C57.9328 37.9826 61.6842 38.9009 63.4029 41.7945L112.601 124.7C114.265 127.497 113.393 131.114 110.631 132.843Z" fill="white"/>
</mask>
<g mask="url(#mask3_1278_9843)">
<path d="M72.0905 157.083C70.4599 158.112 68.4145 157.96 66.6997 156.894C65.8079 156.341 65.0118 155.54 64.4076 154.519L55.1406 138.851L103.04 108.847L112.307 124.514C113.46 126.461 113.608 128.717 112.861 130.481C112.473 131.4 111.84 132.176 110.994 132.717L72.0905 157.083Z" fill="white"/>
</g>
<path d="M110.631 132.844L108.997 133.865C108.997 133.865 108.956 133.892 108.934 133.909L72.7317 156.599C69.8768 158.392 66.1145 157.482 64.3902 154.585L14.9666 71.6089C13.383 68.9405 14.0959 65.5332 16.5439 63.7164C16.6729 63.6227 16.8156 63.5289 16.9556 63.4406L55.0774 39.7628C57.9323 37.9836 61.6837 38.9019 63.4024 41.7954L112.601 124.701C114.264 127.498 113.392 131.115 110.631 132.844Z" stroke="black" stroke-width="0.561895" stroke-miterlimit="10"/>
<path d="M56.2983 113.804C56.8103 114.127 57.2813 114.561 57.6837 115.104C58.4419 116.12 58.8294 117.356 58.7742 118.571C58.7219 119.794 58.2376 120.851 57.409 121.564C56.5832 122.273 55.509 122.542 54.3897 122.321C53.8535 122.213 53.339 122.005 52.8628 121.706C52.3398 121.377 51.8716 120.939 51.4774 120.406C50.7192 119.391 50.3317 118.155 50.3869 116.94C50.4392 115.716 50.9235 114.66 51.7521 113.946C53.0197 112.86 54.8202 112.87 56.2983 113.804Z" fill="#60E492"/>
<path d="M59.322 118.675C59.2618 120.052 58.7146 121.249 57.7817 122.048C56.8461 122.853 55.6345 123.15 54.3695 122.905C53.77 122.785 53.1868 122.55 52.6528 122.216C52.0692 121.843 51.5349 121.344 51.0855 120.743C50.2282 119.596 49.7936 118.206 49.8539 116.829C49.9086 115.449 50.4558 114.252 51.3887 113.453C52.8292 112.226 54.8551 112.238 56.5259 113.296C57.1012 113.658 57.6328 114.148 58.0849 114.758C58.9422 115.905 59.3768 117.295 59.322 118.675ZM57.4151 121.557C58.2437 120.843 58.7279 119.787 58.7803 118.563C58.8299 117.345 58.4396 116.115 57.6898 115.097C57.2928 114.556 56.8163 114.12 56.3043 113.797C54.8207 112.86 53.0257 112.853 51.7581 113.938C50.9295 114.652 50.4452 115.709 50.3929 116.932C50.3433 118.15 50.7335 119.381 51.4834 120.399C51.8776 120.931 52.3514 121.373 52.8688 121.699C53.345 121.997 53.8568 122.211 54.3957 122.314C55.515 122.534 56.5837 122.262 57.4151 121.557Z" fill="black"/>
<path d="M56.3159 67.2996L53.993 68.4784L54.4322 68.2026L56.7607 67.0266L56.3159 67.2996Z" fill="black"/>
<path d="M54.982 72.7911C54.982 72.7911 55.0095 72.7773 55.0205 72.769C55.2429 72.6531 55.468 72.5454 55.6904 72.4294C56.2314 72.1561 56.7723 71.8828 57.3077 71.6068C57.1733 71.7528 57.0224 71.8768 56.8577 71.9871L54.5265 73.1686C54.6967 73.0611 54.8476 72.937 54.9765 72.7883L54.982 72.7911Z" fill="#6268B5"/>
<path d="M46.0461 58.8334C46.0873 58.8059 46.134 58.781 46.1779 58.7617L48.5091 57.5802C48.4624 57.605 48.424 57.6271 48.3773 57.6519C47.6799 58.0053 46.7463 58.4746 46.0461 58.8334Z" fill="#FBE484"/>
<path d="M53.5068 61.5125L56.7678 67.0196L56.3203 67.2982L54.0885 68.6939C54.0388 68.5868 53.9891 68.4797 53.9257 68.3726L53.796 68.1503L56.0086 66.7656L52.1793 60.2894L49.9667 61.6741L49.7763 61.3529C49.735 61.2842 49.6936 61.2156 49.6495 61.1525L51.873 59.7595L52.3122 59.4837L53.5068 61.4988L53.5068 61.5125Z" fill="black"/>
<path d="M48.6555 60.9304C48.9225 61.0975 49.1622 61.3334 49.3415 61.6354L53.4853 68.6524C54.0067 69.5364 53.8332 70.6308 53.0947 71.0942C52.7351 71.3204 52.2954 71.3626 51.8663 71.2178C51.7315 71.1714 51.6022 71.1139 51.4811 71.04C51.2086 70.8701 50.9772 70.6315 50.8033 70.3323L46.6568 63.3207C46.403 62.8924 46.3002 62.3951 46.3762 61.9387C46.4494 61.474 46.685 61.0969 47.0473 60.8789C47.536 60.5728 48.1436 60.6209 48.6528 60.9359L48.6555 60.9304Z" fill="#FBE484"/>
<path d="M46.3998 63.9178L44.0713 65.0938L43.881 64.7726L46.2094 63.5966L46.3998 63.9178Z" fill="black"/>
<path d="M57.3631 70.1674C57.2708 70.7256 56.9804 71.1853 56.544 71.4556L51.8196 74.4125C51.3804 74.6884 50.8527 74.7417 50.3301 74.5642C50.165 74.5096 50.0082 74.4384 49.8623 74.3453C49.532 74.1398 49.2455 73.8463 49.0386 73.4894L48.3378 72.3034L50.5696 70.9077C50.7708 71.1657 51.0105 71.3878 51.2719 71.5522C51.4343 71.6536 51.5994 71.7357 51.7782 71.7903C52.3477 71.9842 52.9275 71.9225 53.4052 71.6246C54.3001 71.0674 54.5722 69.8023 54.0916 68.6984L56.3234 67.3027L57.0296 68.4914C57.3358 69.0075 57.4636 69.6065 57.3686 70.1702L57.3631 70.1674Z" fill="#FBE484"/>
<path d="M57.901 70.3444C57.7844 71.0621 57.4118 71.6456 56.8628 71.9904L52.1384 74.9473C51.5867 75.2976 50.9161 75.3623 50.2449 75.1383C50.0359 75.0755 49.8377 74.977 49.6478 74.862C49.2294 74.599 48.8658 74.2259 48.5927 73.7675L45.6655 68.8177L47.8974 72.5842L48.3366 72.3084L49.0374 73.4944C49.2498 73.854 49.5308 74.1448 49.8611 74.3502C50.007 74.4434 50.1693 74.5172 50.3289 74.5691C50.8515 74.7467 51.3819 74.6878 51.8184 74.4175L56.5428 71.4606C56.982 71.1848 57.2696 70.7306 57.3619 70.1724C57.4569 69.6087 57.3291 69.0097 57.0229 68.4936L56.3166 67.3049L56.7559 67.029L57.4566 68.215C57.8484 68.8766 58.0012 69.6322 57.8928 70.3472L57.901 70.3444Z" fill="black"/>
<path d="M52.1813 60.299L56.0078 66.767L53.798 68.1599L49.9687 61.6837L52.1813 60.299Z" fill="#FBE484"/>
<path d="M54.0929 68.6978C54.579 69.8046 54.3014 71.0669 53.4065 71.624C52.9288 71.9219 52.3489 71.9837 51.7795 71.7897C51.6035 71.7296 51.4301 71.6503 51.2732 71.5517C51.0062 71.3846 50.7694 71.1707 50.5709 70.9072C50.4992 70.8167 50.433 70.7151 50.3696 70.608L50.2399 70.3857L46.4079 63.915L46.2175 63.5938C46.1761 63.5251 46.1375 63.451 46.1044 63.3796C45.8531 62.8634 45.7639 62.2973 45.848 61.7556C45.9456 61.1452 46.2634 60.6442 46.7355 60.3435C47.3834 59.9381 48.1917 59.9968 48.8688 60.4159C49.1633 60.5967 49.4305 60.8463 49.6483 61.1537C49.6924 61.2168 49.7338 61.2854 49.7752 61.3541L49.9655 61.6753L53.7948 68.1515L53.9245 68.3738C53.9879 68.4809 54.0404 68.5825 54.0874 68.6951L54.0929 68.6978ZM53.0947 71.0915C53.8304 70.6336 54.0067 69.5337 53.4853 68.6497L49.3414 61.6326C49.1621 61.3306 48.9252 61.0893 48.6555 60.9277C48.1463 60.6126 47.5304 60.5672 47.05 60.8706C46.6904 61.0968 46.4521 61.4657 46.3789 61.9304C46.3029 62.3868 46.4057 62.8842 46.6595 63.3124L50.806 70.324C50.9799 70.6232 51.2168 70.8646 51.4838 71.0317C51.6049 71.1057 51.7315 71.1686 51.869 71.2095C52.2981 71.3543 52.7351 71.3039 53.0974 71.0859" fill="black"/>
<path d="M44.1941 65.3002L46.3984 63.9183L50.2304 70.389L48.0179 71.7737L44.1941 65.3002Z" fill="#FBE484"/>
<path d="M50.3361 57.7177C50.6664 57.9232 50.9529 58.2167 51.1709 58.579L51.8771 59.7678L49.6536 61.1607C49.4358 60.8533 49.1686 60.6037 48.8741 60.4229C48.197 60.0038 47.3832 59.9424 46.7409 60.3506C46.2632 60.6485 45.9509 61.1522 45.8533 61.7626C45.7692 62.3043 45.8584 62.8704 46.1097 63.3866L43.8889 64.7741L43.1881 63.5881C42.5563 62.5119 42.7679 61.1755 43.6655 60.6128L48.3898 57.6559C48.8291 57.3801 49.3567 57.3267 49.8794 57.5043C50.0444 57.5589 50.1985 57.6355 50.3471 57.7232L50.3361 57.7177Z" fill="#FBE484"/>
<path d="M50.2358 70.3864L50.3655 70.6088C50.4234 70.7131 50.4923 70.8092 50.5668 70.908L48.335 72.3037L47.8958 72.5795L45.6639 68.8129L43.432 65.0464L43.8712 64.7705L46.092 63.3831C46.1251 63.4545 46.1638 63.5286 46.2052 63.5973L46.3955 63.9185L44.183 65.3031L48.0123 71.7793L50.2248 70.3947L50.2358 70.3864Z" fill="black"/>
<path d="M51.8696 59.766L51.1634 58.5772C50.951 58.2176 50.6644 57.9241 50.3286 57.7159C50.1828 57.6228 50.0259 57.5516 49.8609 57.497C49.3382 57.3195 48.8078 57.3783 48.3713 57.6487L43.647 60.6056C42.7466 61.1737 42.5296 62.5074 43.1696 63.5808L43.8704 64.7668L43.4312 65.0426L42.7304 63.8566C41.9221 62.4867 42.1933 60.7956 43.338 60.0812L48.0651 57.1188C48.6168 56.7685 49.2874 56.7038 49.9641 56.9305C50.1704 56.9988 50.3713 57.0918 50.553 57.2096C50.9713 57.4726 51.335 57.8457 51.6081 58.3041L53.5062 61.5134L52.3116 59.4984L51.8724 59.7742L51.8696 59.766Z" fill="black"/>
<path d="M66.2457 122.242C66.5017 122.403 66.7193 122.628 66.8821 122.908C67.1166 123.306 67.2083 123.771 67.1405 124.197C67.07 124.629 66.8453 124.984 66.5077 125.193L58.7033 130.078C58.3712 130.291 57.9645 130.336 57.5601 130.196C57.4363 130.155 57.3152 130.095 57.2051 130.027C56.9491 129.865 56.7315 129.64 56.566 129.366C56.3287 128.959 56.2398 128.503 56.3048 128.069C56.3753 127.637 56.6 127.282 56.9376 127.072L64.742 122.187C65.0741 121.975 65.4781 121.936 65.8852 122.069C66.009 122.11 66.1301 122.171 66.2402 122.239L66.2457 122.242Z" fill="white"/>
<path d="M67.6781 124.374C67.5859 124.96 67.2818 125.433 66.8233 125.72L59.019 130.605C58.5633 130.887 58.0191 130.945 57.4662 130.76C57.2957 130.702 57.1416 130.626 56.9902 130.53C56.6434 130.316 56.3486 130.012 56.1279 129.641C55.8079 129.098 55.6828 128.479 55.775 127.894C55.8727 127.311 56.1741 126.829 56.6298 126.548L64.4341 121.663C64.8871 121.373 65.434 121.322 65.9814 121.505C66.1519 121.563 66.3143 121.637 66.4656 121.733C66.807 121.943 67.1045 122.256 67.3252 122.627C67.6452 123.17 67.7703 123.789 67.6781 124.374ZM66.5171 125.19C66.8547 124.981 67.0794 124.626 67.1499 124.194C67.2177 123.768 67.126 123.303 66.8915 122.905C66.726 122.631 66.5056 122.398 66.2551 122.239C66.145 122.17 66.0239 122.11 65.9001 122.069C65.493 121.935 65.089 121.975 64.7569 122.187L56.9525 127.072C56.6149 127.282 56.3902 127.637 56.3197 128.068C56.2491 128.5 56.3436 128.959 56.5809 129.365C56.7464 129.64 56.9695 129.867 57.22 130.026C57.3356 130.098 57.4512 130.155 57.575 130.196C57.9821 130.33 58.3861 130.29 58.7182 130.078L66.5226 125.193" fill="black"/>
<path d="M72.9195 73.716L71.9167 60.0765C71.7616 57.9669 74.0728 56.5785 75.8624 57.7063L81.4278 120.491L77.8025 122.528L72.9195 73.716Z" fill="#1E5D36"/>
<path d="M78.9543 136.855L77.7718 122.451L81.4713 120.129L84.0718 138.373C85.133 140.517 86.9776 144.954 85.8665 145.547C80.4742 146.585 78.8658 140.264 78.9543 136.855Z" fill="#565656"/>
<path d="M133.534 140.137C133.423 140.156 133.307 140.178 133.191 140.192L88.8269 145.857C85.4841 146.278 82.4508 143.873 82.0961 140.525L72.0539 44.4642C71.7147 41.2135 74.0417 38.2898 77.2866 37.8844L79.1216 37.6569C76.1372 38.2788 74.0605 41.0726 74.3783 44.1592L84.4254 140.216C84.7753 143.568 87.8086 145.973 91.1523 145.543L133.534 140.137Z" fill="black"/>
<mask id="mask4_1278_9843" style="mask-type:luminance" maskUnits="userSpaceOnUse" x="72" y="37" width="62" height="109">
<path d="M133.533 140.139C133.421 140.158 133.305 140.18 133.19 140.194L88.8254 145.859C85.4827 146.28 82.4493 143.875 82.0947 140.526L72.0524 44.4662C71.7132 41.2155 74.0403 38.2917 77.2851 37.8863L79.1202 37.6588C76.1358 38.2807 74.059 41.0745 74.3768 44.1611L84.4239 140.218C84.7738 143.57 87.8071 145.975 91.1508 145.545L133.533 140.139Z" fill="white"/>
</mask>
<g mask="url(#mask4_1278_9843)">
<path d="M80.639 96.025L74.3032 97.1062L76.1771 112.374L85.2565 111.471L80.639 96.025Z" fill="white"/>
<path d="M79.2977 82.0094L72.9667 83.0868L72.8212 90.6435L81.9007 89.7403L79.2977 82.0094Z" fill="white"/>
<path d="M77.9796 69.8321L71.6487 70.9095L70.9753 72.4273L80.0548 71.5241L77.9796 69.8321Z" fill="white"/>
<path d="M78.1832 66.463L71.8523 67.5404L71.1789 69.0581L80.2584 68.1549L78.1832 66.463Z" fill="white"/>
<path d="M85.3494 121.539L79.0185 122.616L80.169 149.198L89.2485 148.295L85.3494 121.539Z" fill="white"/>
<path d="M86.0618 137.527L79.1023 138.715L80.5214 142.005L86.6882 140.311L86.0618 137.527Z" fill="black"/>
<path d="M89.5788 140.173L81.1146 145.359L91.0532 147.47L91.1637 143.267L89.5788 140.173Z" fill="black"/>
</g>
<path d="M133.534 140.137C133.423 140.156 133.307 140.178 133.191 140.192L88.8269 145.857C85.4841 146.278 82.4508 143.873 82.0961 140.525L72.0539 44.4642C71.7147 41.2135 74.0417 38.2898 77.2866 37.8844L79.1216 37.6569C76.1372 38.2788 74.0605 41.0726 74.3783 44.1592L84.4254 140.216C84.7753 143.568 87.8086 145.973 91.1523 145.543L133.534 140.137Z" stroke="black" stroke-width="0.561895" stroke-miterlimit="10"/>
<path d="M135.528 139.881L133.617 140.122C133.617 140.122 133.568 140.129 133.541 140.135L91.1591 145.541C87.8154 145.971 84.7821 143.566 84.4322 140.213L74.3851 44.157C74.0673 41.0704 76.144 38.2766 79.1284 37.6547C79.2848 37.6237 79.4538 37.5985 79.6179 37.5771L124.156 32.0796C127.494 31.6625 130.514 34.0701 130.86 37.4178L140.732 133.315C141.069 136.552 138.76 139.469 135.528 139.881Z" fill="#EBEA6F"/>
<mask id="mask5_1278_9843" style="mask-type:luminance" maskUnits="userSpaceOnUse" x="74" y="32" width="67" height="114">
<path d="M135.53 139.879L133.619 140.12C133.619 140.12 133.57 140.127 133.543 140.133L91.1615 145.539C87.8178 145.969 84.7845 143.564 84.4346 140.211L74.3875 44.1551C74.0698 41.0684 76.1465 38.2747 79.1309 37.6527C79.2873 37.6218 79.4562 37.5965 79.6203 37.5752L124.159 32.0776C127.497 31.6606 130.517 34.0681 130.863 37.4158L140.735 133.313C141.071 136.55 138.762 139.467 135.53 139.879Z" fill="white"/>
</mask>
<g mask="url(#mask5_1278_9843)">
<path d="M90.3741 145.712C88.4623 145.961 86.6695 144.965 85.56 143.278C84.9827 142.402 84.5961 141.341 84.4762 140.16L82.6382 122.05L138.707 114.912L140.545 133.022C140.775 135.273 139.962 137.383 138.545 138.671C137.806 139.342 136.906 139.781 135.911 139.917L90.3741 145.712Z" fill="white"/>
</g>
<path d="M135.528 139.881L133.617 140.122C133.617 140.122 133.568 140.129 133.541 140.135L91.1591 145.541C87.8154 145.971 84.7821 143.566 84.4322 140.213L74.3851 44.157C74.0673 41.0704 76.144 38.2766 79.1284 37.6547C79.2848 37.6237 79.4538 37.5985 79.6179 37.5771L124.156 32.0796C127.494 31.6625 130.514 34.0701 130.86 37.4178L140.732 133.315C141.069 136.552 138.76 139.469 135.528 139.881Z" stroke="black" stroke-width="0.561895" stroke-miterlimit="10"/>
<path d="M94.1982 99.8017C94.5273 100.31 94.773 100.901 94.9103 101.563C95.1724 102.803 95.0055 104.087 94.4456 105.167C93.8848 106.256 93.0019 107.012 91.9503 107.312C90.9035 107.608 89.8156 107.402 88.8921 106.732C88.4509 106.408 88.0711 106.004 87.7642 105.533C87.4274 105.015 87.1865 104.42 87.052 103.772C86.7899 102.532 86.9569 101.247 87.5167 100.167C88.0775 99.0789 88.9604 98.323 90.012 98.0228C91.6182 97.5692 93.2484 98.3336 94.1982 99.8017Z" fill="#EBEA6F"/>
<path d="M94.8947 105.492C94.2622 106.717 93.2633 107.573 92.0812 107.907C90.8943 108.245 89.67 108.006 88.6244 107.253C88.1304 106.893 87.6997 106.435 87.3552 105.908C86.9818 105.325 86.7062 104.647 86.5505 103.913C86.2536 102.512 86.4424 101.068 87.0749 99.8433C87.7037 98.6136 88.7026 97.7567 89.8847 97.4227C91.7068 96.914 93.5406 97.775 94.6136 99.4359C94.984 100.006 95.2606 100.674 95.4153 101.417C95.7122 102.818 95.5235 104.262 94.8947 105.492ZM91.9545 107.308C93.0061 107.007 93.889 106.252 94.4498 105.163C95.0058 104.078 95.1679 102.798 94.9145 101.559C94.781 100.901 94.5314 100.306 94.2023 99.7975C93.2487 98.3245 91.6224 97.5649 90.0162 98.0186C88.9645 98.3188 88.0816 99.0747 87.5208 100.163C86.9648 101.248 86.8027 102.529 87.0561 103.767C87.1906 104.416 87.4354 105.016 87.7683 105.529C88.0753 106 88.4503 106.408 88.8962 106.728C89.8197 107.397 90.9038 107.599 91.9545 107.308Z" fill="black"/>
<path d="M113.725 57.5952L111.122 57.6905L111.637 57.6245L114.244 57.534L113.725 57.5952Z" fill="black"/>
<path d="M110.205 62.0203C110.205 62.0203 110.236 62.0193 110.249 62.0164C110.5 62.0045 110.749 62.0013 111 61.9893C111.605 61.9682 112.211 61.9471 112.813 61.9212C112.63 61.9973 112.441 62.0466 112.245 62.0776L109.633 62.172C109.833 62.1457 110.022 62.0965 110.201 62.0156L110.205 62.0203Z" fill="#6268B5"/>
<path d="M107.953 45.5998C108.002 45.592 108.055 45.5891 108.103 45.59L110.715 45.4956C110.662 45.4986 110.618 45.5025 110.565 45.5055C109.784 45.5336 108.739 45.5678 107.953 45.5998Z" fill="#EBEA6F"/>
<path d="M113.596 51.1637L114.246 57.5308L113.723 57.596L111.111 57.9265C111.111 57.8084 111.111 57.6903 111.098 57.5665L111.074 57.3102L113.663 56.9817L112.904 49.4964L110.315 49.825L110.277 49.4535C110.268 49.3739 110.259 49.2942 110.246 49.2184L112.849 48.887L113.363 48.8209L113.602 51.1512L113.596 51.1637Z" fill="black"/>
<path d="M109.438 48.6001C109.61 48.8638 109.729 49.1785 109.765 49.5279L110.582 57.636C110.684 58.6572 110.068 59.5778 109.203 59.6886C108.782 59.743 108.365 59.5968 108.036 59.2853C107.933 59.1866 107.84 59.0802 107.761 58.9623C107.585 58.6938 107.475 58.3801 107.443 58.0355L106.621 49.9312C106.57 49.4359 106.685 48.9414 106.946 48.5589C107.207 48.1678 107.579 47.9244 108 47.8786C108.572 47.8057 109.103 48.1044 109.433 48.604L109.438 48.6001Z" fill="#EBEA6F"/>
<path d="M106.139 50.3654L103.532 50.4559L103.494 50.0844L106.101 49.9939L106.139 50.3654Z" fill="black"/>
<path d="M113.471 60.638C113.153 61.106 112.696 61.4014 112.187 61.4637L106.658 62.1654C106.143 62.2315 105.642 62.0586 105.242 61.6781C105.115 61.5593 105.003 61.4289 104.909 61.2831C104.696 60.958 104.559 60.5714 104.521 60.1606L104.382 58.7901L106.994 58.4596C107.068 58.7782 107.192 59.0803 107.361 59.3393C107.466 59.4994 107.581 59.6432 107.721 59.7678C108.156 60.1827 108.708 60.37 109.267 60.3C110.313 60.1697 111.091 59.1356 111.118 57.9319L113.729 57.6014L113.871 58.9767C113.933 59.5737 113.797 60.171 113.475 60.6428L113.471 60.638Z" fill="#EBEA6F"/>
<path d="M113.882 61.0243C113.475 61.6268 112.892 62.0001 112.249 62.0828L106.72 62.7845C106.072 62.871 105.436 62.6483 104.921 62.1634C104.758 62.0187 104.619 61.8461 104.495 61.662C104.226 61.2478 104.052 60.7566 103.996 60.2258L103.416 54.5046L103.862 58.86L104.376 58.794L104.515 60.1645C104.557 60.5801 104.69 60.9619 104.903 61.287C104.997 61.4328 105.113 61.5679 105.236 61.682C105.636 62.0624 106.142 62.2316 106.652 62.1693L112.181 61.4675C112.695 61.4015 113.147 61.1099 113.465 60.6419C113.788 60.1701 113.923 59.5728 113.862 58.9758L113.719 57.6005L114.234 57.5344L114.372 58.9049C114.45 59.6699 114.272 60.4199 113.873 61.0233L113.882 61.0243Z" fill="black"/>
<path d="M112.905 49.5056L113.664 56.9822L111.074 57.3194L110.316 49.8341L112.905 49.5056Z" fill="#EBEA6F"/>
<path d="M111.116 57.9314C111.093 59.14 110.311 60.1693 109.265 60.2996C108.707 60.3696 108.154 60.1823 107.719 59.7673C107.584 59.6389 107.46 59.4942 107.359 59.3388C107.187 59.0751 107.062 58.7816 106.992 58.4591C106.965 58.3469 106.947 58.2269 106.935 58.1031L106.91 57.8468L106.147 50.3654L106.109 49.994C106.1 49.9143 106.096 49.8308 106.096 49.7521C106.085 49.1781 106.241 48.6268 106.545 48.1704C106.89 47.6573 107.388 47.3359 107.943 47.2611C108.701 47.1649 109.41 47.5573 109.849 48.2218C110.04 48.5095 110.178 48.8482 110.247 49.2186C110.261 49.2944 110.269 49.3741 110.278 49.4537L110.316 49.8251L111.075 57.3104L111.099 57.5667C111.112 57.6905 111.117 57.8047 111.112 57.9266L111.116 57.9314ZM109.206 59.6853C110.066 59.5784 110.687 58.654 110.585 57.6328L109.767 49.5246C109.731 49.1752 109.618 48.8567 109.441 48.5969C109.111 48.0973 108.571 47.7976 108.007 47.8715C107.586 47.9259 107.215 48.1607 106.953 48.5518C106.693 48.9343 106.577 49.4288 106.628 49.9241L107.45 58.0284C107.482 58.3729 107.596 58.6915 107.768 58.9552C107.847 59.0731 107.936 59.1834 108.043 59.2782C108.372 59.5897 108.79 59.7273 109.21 59.6815" fill="black"/>
<path d="M103.559 50.6945L106.139 50.365L106.903 57.8465L104.313 58.175L103.559 50.6945Z" fill="#EBEA6F"/>
<path d="M112.315 46.387C112.529 46.7121 112.666 47.0987 112.711 47.5191L112.854 48.8945L110.251 49.2259C110.182 48.8555 110.044 48.5168 109.853 48.2292C109.414 47.5646 108.701 47.1674 107.947 47.2684C107.388 47.3384 106.894 47.6646 106.549 48.1777C106.245 48.6342 106.089 49.1854 106.1 49.7594L103.502 50.087L103.364 48.7165C103.242 47.4745 103.994 46.3502 105.045 46.2161L110.574 45.5143C111.089 45.4482 111.59 45.6212 111.99 46.0016C112.117 46.1205 112.225 46.2547 112.323 46.3966L112.315 46.387Z" fill="#EBEA6F"/>
<path d="M106.906 57.8443L106.93 58.1006C106.939 58.2196 106.961 58.3357 106.987 58.4566L104.376 58.7871L103.862 58.8532L103.416 54.4977L102.97 50.1423L103.485 50.0762L106.083 49.7486C106.083 49.8273 106.087 49.9109 106.096 49.9905L106.134 50.3619L103.544 50.6905L104.303 58.1757L106.892 57.8472L106.906 57.8443Z" fill="black"/>
<path d="M112.845 48.8913L112.702 47.516C112.66 47.1004 112.524 46.7137 112.306 46.3839C112.213 46.2381 112.1 46.1077 111.973 45.9889C111.573 45.6084 111.067 45.4393 110.558 45.5016L105.029 46.2033C103.973 46.3413 103.216 47.4608 103.347 48.7037L103.485 50.0743L102.971 50.1403L102.833 48.7698C102.674 47.1871 103.629 45.7659 104.968 45.5977L110.502 44.8921C111.15 44.8056 111.786 45.0283 112.305 45.518C112.463 45.6666 112.607 45.8353 112.722 46.0184C112.992 46.4327 113.165 46.9239 113.221 47.4547L113.597 51.1642L113.358 48.8339L112.844 48.8999L112.845 48.8913Z" fill="black"/>
<path d="M99.684 111.635C99.8485 111.889 99.9517 112.184 99.982 112.507C100.028 112.967 99.9162 113.427 99.6759 113.785C99.4307 114.147 99.0778 114.375 98.6833 114.424L89.5496 115.584C89.159 115.637 88.7709 115.507 88.4623 115.211C88.3672 115.122 88.2825 115.016 88.2113 114.908C88.0468 114.654 87.9436 114.358 87.9085 114.04C87.8636 113.571 87.9743 113.12 88.2156 112.753C88.4608 112.391 88.8137 112.163 89.2081 112.114L98.3419 110.954C98.7325 110.901 99.1157 111.035 99.4291 111.327C99.5243 111.416 99.6089 111.522 99.6802 111.63L99.684 111.635Z" fill="white"/>
<path d="M100.086 114.172C99.7568 114.665 99.2821 114.967 98.7456 115.035L89.6119 116.194C89.0802 116.259 88.5615 116.084 88.1376 115.683C88.0068 115.56 87.8991 115.425 87.8019 115.275C87.5768 114.935 87.4369 114.535 87.3921 114.106C87.3297 113.479 87.4756 112.865 87.805 112.372C88.1383 111.884 88.6139 111.573 89.1456 111.509L98.2794 110.349C98.8121 110.276 99.3298 110.46 99.7499 110.856C99.8806 110.979 99.997 111.114 100.094 111.265C100.315 111.6 100.454 112.008 100.499 112.437C100.562 113.065 100.416 113.679 100.086 114.172ZM98.69 114.425C99.0844 114.377 99.4373 114.149 99.6825 113.786C99.9229 113.428 100.034 112.968 99.9886 112.508C99.9535 112.19 99.8513 111.885 99.6906 111.636C99.6194 111.528 99.5348 111.422 99.4396 111.333C99.1262 111.041 98.743 110.907 98.3524 110.961L89.2186 112.12C88.8241 112.169 88.4712 112.397 88.2261 112.759C87.9809 113.121 87.8741 113.577 87.919 114.046C87.9541 114.365 88.0611 114.665 88.2218 114.914C88.2968 115.027 88.3776 115.128 88.4728 115.217C88.7862 115.509 89.1694 115.643 89.56 115.59L98.6938 114.43" fill="black"/>
</g>
<path d="M124.181 70.2933L128.163 57.7901C128.789 55.8265 131.406 55.4558 132.553 57.1685L112.932 116.486L108.792 116.872L124.181 70.2933Z" fill="#1E5D36"/>
<path d="M104.018 130.431L108.795 116.792L113.119 116.175L108.076 133.899C108.173 136.289 108.054 141.093 106.798 141.183C101.449 139.938 102.551 133.51 104.018 130.431Z" fill="#565656"/>
<path d="M152.547 155.626C152.438 155.597 152.323 155.57 152.212 155.536L109.378 142.67C106.153 141.695 104.36 138.264 105.398 135.061L135.288 43.2189C136.3 40.1112 139.615 38.3864 142.745 39.3357L144.514 39.8741C141.534 39.2286 138.501 40.9364 137.536 43.8855L107.651 135.726C106.607 138.931 108.401 142.361 111.63 143.329L152.547 155.626Z" fill="black"/>
<mask id="mask6_1278_9843" style="mask-type:luminance" maskUnits="userSpaceOnUse" x="105" y="39" width="48" height="117">
<path d="M152.545 155.627C152.436 155.598 152.321 155.571 152.21 155.537L109.376 142.671C106.151 141.696 104.357 138.265 105.395 135.062L135.286 43.2199C136.298 40.1121 139.613 38.3874 142.742 39.3367L144.511 39.8751C141.532 39.2296 138.498 40.9373 137.533 43.8864L107.649 135.727C106.605 138.932 108.398 142.362 111.628 143.33L152.545 155.627Z" fill="white"/>
</mask>
<g mask="url(#mask6_1278_9843)">
<path d="M122.163 93.8154L115.935 92.2266L111.438 106.937L120.101 109.804L122.163 93.8154Z" fill="white"/>
<path d="M126.638 80.4658L120.416 78.8754L117.21 85.7199L125.872 88.5872L126.638 80.4658Z" fill="white"/>
<path d="M130.386 68.8045L124.164 67.2142L122.931 68.3269L131.593 71.1941L130.386 68.8045Z" fill="white"/>
<path d="M131.942 65.8094L125.72 64.2191L124.487 65.3318L133.15 68.199L131.942 65.8094Z" fill="white"/>
<path d="M116.092 119.039L109.87 117.449L100.11 142.202L108.773 145.069L116.092 119.039Z" fill="white"/>
<path d="M110.24 133.936L103.399 132.191L103.357 135.774L109.68 136.734L110.24 133.936Z" fill="black"/>
<path d="M112.377 137.784L102.536 139.079L110.757 145.05L112.567 141.255L112.377 137.784Z" fill="black"/>
</g>
<path d="M152.547 155.626C152.438 155.597 152.323 155.57 152.212 155.536L109.378 142.67C106.153 141.695 104.36 138.264 105.398 135.061L135.288 43.2189C136.3 40.1112 139.615 38.3864 142.745 39.3357L144.514 39.8741C141.534 39.2286 138.501 40.9364 137.536 43.8855L107.651 135.726C106.607 138.931 108.401 142.361 111.63 143.329L152.547 155.626Z" stroke="black" stroke-width="0.561895" stroke-miterlimit="10"/>
<path d="M154.473 156.201L152.629 155.644C152.629 155.644 152.581 155.631 152.554 155.626L111.637 143.329C108.407 142.361 106.614 138.931 107.658 135.726L137.543 43.8854C138.508 40.9363 141.541 39.2285 144.52 39.874C144.676 39.9093 144.84 39.955 144.999 40.0022L187.924 53.0924C191.143 54.0688 192.923 57.4964 191.878 60.6955L161.898 152.32C160.888 155.414 157.593 157.14 154.473 156.201Z" fill="#60E492"/>
<mask id="mask7_1278_9843" style="mask-type:luminance" maskUnits="userSpaceOnUse" x="107" y="39" width="86" height="118">
<path d="M154.476 156.201L152.632 155.644C152.632 155.644 152.585 155.631 152.558 155.626L111.64 143.329C108.411 142.361 106.618 138.931 107.661 135.726L137.546 43.8854C138.511 40.9363 141.544 39.2285 144.524 39.874C144.679 39.9093 144.844 39.955 145.002 40.0022L187.927 53.0924C191.147 54.0688 192.926 57.4964 191.881 60.6955L161.901 152.32C160.892 155.414 157.596 157.14 154.476 156.201Z" fill="white"/>
</mask>
<g mask="url(#mask7_1278_9843)">
<path d="M110.85 143.166C109.002 142.617 107.77 140.977 107.442 138.985C107.271 137.95 107.349 136.823 107.72 135.696L113.405 118.404L167.531 134.684L161.845 151.976C161.14 154.126 159.54 155.723 157.721 156.323C156.774 156.636 155.772 156.671 154.809 156.391L110.85 143.166Z" fill="white"/>
</g>
<path d="M154.473 156.201L152.629 155.644C152.629 155.644 152.581 155.631 152.554 155.626L111.637 143.329C108.407 142.361 106.614 138.931 107.658 135.726L137.543 43.8854C138.508 40.9363 141.541 39.2285 144.52 39.874C144.676 39.9093 144.84 39.955 144.999 40.0022L187.924 53.0924C191.143 54.0688 192.923 57.4964 191.878 60.6955L161.898 152.32C160.888 155.414 157.593 157.14 154.473 156.201Z" stroke="black" stroke-width="0.561895" stroke-miterlimit="10"/>
<path d="M133.014 102.778C133.108 103.376 133.092 104.016 132.948 104.677C132.683 105.916 132.008 107.022 131.058 107.78C130.103 108.547 128.989 108.878 127.906 108.725C126.829 108.57 125.919 107.939 125.348 106.952C125.076 106.476 124.894 105.952 124.805 105.397C124.708 104.787 124.73 104.146 124.871 103.499C125.135 102.259 125.81 101.154 126.761 100.395C127.716 99.6285 128.83 99.297 129.913 99.4504C131.565 99.6891 132.743 101.05 133.014 102.778Z" fill="#38D78D"/>
<path d="M131.336 108.26C130.26 109.122 128.999 109.498 127.783 109.323C126.561 109.149 125.54 108.432 124.891 107.319C124.586 106.789 124.379 106.196 124.279 105.574C124.175 104.889 124.198 104.158 124.355 103.425C124.653 102.024 125.413 100.781 126.489 99.9196C127.563 99.0519 128.825 98.6753 130.04 98.8509C131.912 99.1271 133.237 100.659 133.542 102.613C133.649 103.284 133.629 104.008 133.469 104.749C133.17 106.15 132.41 107.392 131.336 108.26ZM127.911 108.723C128.994 108.877 130.108 108.545 131.063 107.779C132.012 107.014 132.681 105.91 132.953 104.675C133.099 104.02 133.113 103.374 133.019 102.776C132.747 101.043 131.57 99.6875 129.918 99.4487C128.835 99.2953 127.721 99.6268 126.766 100.393C125.817 101.158 125.148 102.262 124.876 103.497C124.735 104.144 124.715 104.792 124.81 105.396C124.899 105.951 125.076 106.476 125.353 106.95C125.925 107.937 126.833 108.562 127.911 108.723Z" fill="black"/>
<path d="M168.017 72.1604L165.6 71.1889L166.097 71.3377L168.516 72.3152L168.017 72.1604Z" fill="black"/>
<path d="M163.001 74.7705C163.001 74.7705 163.03 74.782 163.043 74.7849C163.277 74.8759 163.506 74.9744 163.74 75.0654C164.302 75.2924 164.864 75.5194 165.424 75.7405C165.226 75.7355 165.033 75.7036 164.842 75.6524L162.417 74.6764C162.61 74.7336 162.803 74.7655 163 74.7645L163.001 74.7705Z" fill="#6268B5"/>
<path d="M167.622 58.8541C167.67 58.867 167.72 58.8857 167.763 58.9061L170.188 59.882C170.138 59.8633 170.096 59.8489 170.047 59.8301C169.322 59.538 168.354 59.1447 167.622 58.8541Z" fill="#EBEA6F"/>
<path d="M170.515 66.2323L168.519 72.3132L168.015 72.16L165.494 71.3999C165.542 71.292 165.59 71.184 165.629 71.0658L165.711 70.8217L168.21 71.5746L170.561 64.4278L168.062 63.6749L168.178 63.3201C168.203 63.2438 168.227 63.1674 168.245 63.0926L170.758 63.8483L171.255 63.9972L170.525 66.2232L170.515 66.2323Z" fill="black"/>
<path d="M167.758 62.1986C167.808 62.5096 167.789 62.8453 167.68 63.1791L165.129 70.9189C164.807 71.8935 163.869 72.4837 163.034 72.2332C162.627 72.1116 162.306 71.8085 162.132 71.3903C162.078 71.2582 162.036 71.1231 162.012 70.9833C161.96 70.6664 161.988 70.335 162.098 70.0072L164.643 62.269C164.798 61.7959 165.105 61.391 165.498 61.1476C165.896 60.8966 166.335 60.8255 166.738 60.9546C167.29 61.1207 167.654 61.6096 167.752 62.2002L167.758 62.1986Z" fill="#EBEA6F"/>
<path d="M164.027 62.47L161.608 61.4925L161.725 61.1377L164.143 62.1152L164.027 62.47Z" fill="black"/>
<path d="M166.548 74.8365C166.067 75.1347 165.53 75.2189 165.039 75.0686L159.703 73.4612C159.206 73.3123 158.818 72.9505 158.608 72.4402C158.54 72.2801 158.49 72.1152 158.464 71.9441C158.401 71.5602 158.433 71.1513 158.566 70.7606L158.997 69.4521L161.517 70.2122C161.455 70.5335 161.446 70.8601 161.494 71.1652C161.525 71.3541 161.572 71.5324 161.649 71.7029C161.878 72.2591 162.306 72.6548 162.845 72.818C163.854 73.1244 164.985 72.496 165.499 71.4072L168.019 72.1673L167.59 73.4816C167.403 74.052 167.036 74.5426 166.55 74.8424L166.548 74.8365Z" fill="#EBEA6F"/>
<path d="M166.767 75.3564C166.15 75.7413 165.465 75.8453 164.844 75.6592L159.508 74.0519C158.881 73.8674 158.391 73.4054 158.117 72.7528C158.027 72.5542 157.97 72.3402 157.932 72.1215C157.854 71.6335 157.895 71.1142 158.06 70.6067L159.857 65.144L158.493 69.3042L158.99 69.4531L158.559 70.7615C158.428 71.1582 158.394 71.5611 158.457 71.945C158.483 72.1161 158.535 72.2869 158.601 72.4412C158.811 72.9514 159.205 73.3117 159.696 73.4621L165.032 75.0695C165.529 75.2183 166.06 75.1356 166.541 74.8374C167.028 74.5376 167.394 74.047 167.581 73.4766L168.01 72.1623L168.507 72.3111L168.076 73.6195C167.837 74.35 167.369 74.9627 166.759 75.352L166.767 75.3564Z" fill="black"/>
<path d="M170.558 64.4357L168.212 71.5751L165.708 70.8297L168.059 63.6829L170.558 64.4357Z" fill="#EBEA6F"/>
<path d="M165.497 71.4063C164.985 72.5011 163.852 73.1236 162.843 72.8172C162.305 72.6539 161.876 72.2583 161.647 71.7021C161.577 71.53 161.522 71.3473 161.493 71.1643C161.443 70.8533 161.448 70.5342 161.515 70.2114C161.536 70.0978 161.569 69.9811 161.608 69.8628L161.69 69.6188L164.035 62.4735L164.151 62.1187C164.176 62.0424 164.206 61.9645 164.238 61.8925C164.461 61.3634 164.828 60.9235 165.291 60.63C165.815 60.3014 166.401 60.2106 166.938 60.3678C167.67 60.5882 168.158 61.2351 168.289 62.0207C168.346 62.3614 168.335 62.7268 168.247 63.0931C168.228 63.1679 168.204 63.2442 168.18 63.3206L168.063 63.6754L165.712 70.8222L165.63 71.0663C165.592 71.1845 165.55 71.2909 165.496 71.4004L165.497 71.4063ZM163.039 72.2318C163.868 72.4838 164.812 71.892 165.134 70.9174L167.684 63.1777C167.793 62.8439 167.819 62.5066 167.763 62.1972C167.665 61.6066 167.293 61.1133 166.749 60.9516C166.341 60.83 165.907 60.8936 165.509 61.1446C165.116 61.388 164.809 61.7929 164.654 62.266L162.109 70.0041C161.998 70.332 161.973 70.6693 162.023 70.9803C162.047 71.1201 162.083 71.2568 162.143 71.3872C162.316 71.8055 162.642 72.1011 163.045 72.2302" fill="black"/>
<path d="M161.535 61.7213L164.027 62.4698L161.682 69.6151L159.182 68.8622L161.535 61.7213Z" fill="#EBEA6F"/>
<path d="M171.288 61.3469C171.351 61.7308 171.318 62.1397 171.189 62.5423L170.76 63.8567L168.247 63.101C168.335 62.7346 168.347 62.3692 168.289 62.0285C168.158 61.243 167.669 60.5902 166.938 60.3757C166.4 60.2125 165.815 60.3093 165.291 60.6378C164.828 60.9314 164.461 61.3713 164.238 61.9004L161.732 61.1431L162.162 59.8347C162.556 58.6505 163.701 57.9295 164.716 58.2343L170.052 59.8417C170.549 59.9905 170.937 60.3524 171.147 60.8627C171.215 61.0228 171.259 61.1893 171.291 61.3588L171.288 61.3469Z" fill="#EBEA6F"/>
<path d="M161.686 69.6145L161.604 69.8586C161.563 69.9709 161.536 70.086 161.511 70.2071L158.991 69.447L158.494 69.2982L159.858 65.138L161.223 60.9778L161.719 61.1266L164.226 61.8839C164.194 61.9558 164.164 62.0337 164.139 62.1101L164.023 62.4649L161.524 61.712L159.173 68.8588L161.672 69.6117L161.686 69.6145Z" fill="black"/>
<path d="M170.752 63.8503L171.182 62.5359C171.312 62.1392 171.345 61.7303 171.28 61.3405C171.254 61.1694 171.204 61.0045 171.137 60.8443C170.926 60.3341 170.532 59.9738 170.042 59.8234L164.705 58.216C163.684 57.9127 162.538 58.6278 162.152 59.8164L161.721 61.1248L161.224 60.976L161.655 59.6676C162.153 58.157 163.605 57.2473 164.896 57.6382L170.239 59.244C170.866 59.4284 171.356 59.8904 171.631 60.5489C171.716 60.7491 171.778 60.9615 171.809 61.1758C171.886 61.6639 171.845 62.1832 171.68 62.6907L170.515 66.2327L171.245 64.0066L170.748 63.8578L170.752 63.8503Z" fill="black"/>
<path d="M133.213 115.819C133.26 116.118 133.235 116.43 133.131 116.736C132.986 117.175 132.697 117.55 132.332 117.78C131.96 118.011 131.545 118.076 131.165 117.96L122.349 115.305C121.971 115.195 121.669 114.918 121.507 114.522C121.457 114.402 121.422 114.271 121.401 114.143C121.354 113.844 121.38 113.532 121.478 113.227C121.627 112.781 121.912 112.413 122.282 112.176C122.653 111.945 123.068 111.88 123.448 111.996L132.264 114.651C132.643 114.761 132.938 115.039 133.106 115.434C133.157 115.554 133.191 115.685 133.212 115.813L133.213 115.819Z" fill="white"/>
<path d="M132.55 118.301C132.048 118.618 131.492 118.701 130.974 118.545L122.158 115.89C121.646 115.732 121.243 115.361 121.019 114.823C120.95 114.657 120.906 114.49 120.878 114.313C120.811 113.912 120.846 113.489 120.979 113.079C121.177 112.48 121.56 111.979 122.062 111.663C122.565 111.352 123.126 111.262 123.638 111.419L132.453 114.074C132.97 114.224 133.368 114.603 133.591 115.135C133.66 115.301 133.711 115.472 133.739 115.649C133.805 116.045 133.766 116.475 133.632 116.885C133.434 117.484 133.051 117.985 132.55 118.301ZM131.171 117.965C131.551 118.081 131.966 118.016 132.337 117.785C132.703 117.555 132.992 117.181 133.137 116.742C133.234 116.437 133.265 116.117 133.219 115.824C133.198 115.696 133.164 115.565 133.113 115.445C132.946 115.051 132.65 114.773 132.271 114.663L123.456 112.007C123.075 111.891 122.66 111.956 122.289 112.188C121.918 112.419 121.635 112.792 121.485 113.238C121.388 113.544 121.363 113.861 121.409 114.155C121.431 114.289 121.464 114.413 121.515 114.533C121.682 114.928 121.978 115.206 122.356 115.316L131.172 117.971" fill="black"/>
<defs>
<linearGradient id="paint0_linear_1278_9843" x1="111.134" y1="89.503" x2="111.134" y2="215.417" gradientUnits="userSpaceOnUse">
<stop stop-color="white"/>
<stop offset="1" stop-color="#FFAD8B"/>
</linearGradient>
</defs>
</svg>
